# Blender v2.79 (sub 0) OBJ File: 'rock.blend'
# www.blender.org
mtllib rock.mtl
o Cube.002_Cube.003
v 2.563405 0.087166 -3.932462
v 3.162035 0.890132 -3.163763
v 4.411988 0.087166 -2.922730
v 3.532720 0.850701 -2.769863
v 2.156196 0.087166 -1.946627
v 2.806507 1.061121 -2.236475
v 3.307128 0.087166 -1.029799
v 3.406149 0.797308 -2.001940
v 2.856383 0.410222 -3.634847
v 4.079233 0.410222 -2.847377
v 3.596393 0.678080 -1.679029
v 2.334643 0.675065 -2.253288
v 3.535500 0.087166 -3.668433
v 3.183555 0.870417 -2.871141
v 2.663405 0.087166 -1.585712
v 2.942505 0.929215 -2.136422
v 2.752359 0.676573 -1.883977
v 3.570252 0.410222 -3.478849
v 4.202480 0.087166 -1.972128
v 3.469158 0.823888 -2.384224
v 2.358911 0.087166 -2.935205
v 2.983494 0.976001 -2.698092
v 2.594373 0.543222 -2.941049
v 3.891160 0.544737 -2.260650
v 3.062503 0.899944 -2.502176
v 3.097547 0.087166 -2.622522
vn 0.4145 0.7827 -0.4643
vn 0.4969 0.8632 0.0888
vn -0.3964 0.6501 0.6483
vn -0.5852 0.7268 -0.3596
vn 0.0000 -1.0000 0.0000
vn 0.5084 0.8588 0.0637
vn -0.7530 0.6064 -0.2554
vn -0.5448 0.4778 0.6891
vn 0.7129 0.4757 0.5151
vn 0.6002 0.5245 -0.6039
vn 0.2065 0.5202 -0.8287
vn -0.3457 0.6523 0.6746
vn 0.1184 0.9926 0.0254
vn -0.0571 0.8385 0.5419
vn 0.3798 0.7113 -0.5914
vn 0.2184 0.9746 0.0499
vn 0.7457 0.6523 0.1358
vn -0.9190 0.2818 -0.2757
vn 0.6087 0.7857 0.1099
vn -0.5839 0.7280 -0.3593
vn 0.5932 0.8025 0.0646
usemtl Material.003
s off
f 18//1 14//1 4//1 10//1
f 24//2 20//2 8//2 11//2
f 17//3 16//3 6//3 12//3
f 23//4 22//4 2//4 9//4
f 26//5 15//5 5//5 21//5
f 25//6 14//6 2//6 22//6
f 21//7 23//7 9//7 1//7
f 15//8 17//8 12//8 5//8
f 19//9 24//9 11//9 7//9
f 13//10 18//10 10//10 3//10
f 1//11 9//11 18//11 13//11
f 7//12 11//12 17//12 15//12
f 20//13 4//13 14//13 25//13
f 19//5 7//5 15//5 26//5
f 11//14 8//14 16//14 17//14
f 9//15 2//15 14//15 18//15
f 3//5 19//5 26//5 13//5
f 8//16 20//16 25//16 16//16
f 3//17 10//17 24//17 19//17
f 5//18 12//18 23//18 21//18
f 16//19 25//19 22//19 6//19
f 13//5 26//5 21//5 1//5
f 12//20 6//20 22//20 23//20
f 10//21 4//21 20//21 24//21
o Cube.001_Cube.002
v 2.213853 0.087166 -1.761316
v 1.412236 1.613016 -0.650860
v 1.915683 0.087166 0.486819
v 1.412237 1.573585 -0.079669
v -0.813612 0.087166 -1.320468
v 0.419129 1.784005 -0.650859
v -0.084317 0.087166 0.486820
v 0.419129 1.520192 -0.016626
v 2.160002 0.617560 -1.104900
v 1.742678 0.410222 0.313814
v 0.088688 1.400964 0.313815
v 0.265902 0.675065 -1.097469
v 2.896807 0.087166 -0.319656
v 1.412237 1.593301 -0.342113
v -0.360491 0.087166 -0.154305
v 0.419129 1.652099 -0.513180
v 0.039482 1.399457 -0.212390
v 1.742678 1.133106 -0.216106
v 0.851813 0.087166 0.486820
v 0.883968 1.545183 -0.046134
v 0.851813 0.087166 -1.512307
v 0.883968 1.703971 -0.650860
v 0.957129 1.104983 -1.304160
v 0.862863 0.937232 0.313814
v 0.883968 1.624577 -0.433110
v 0.704906 0.087166 -0.231700
vn 0.7821 0.4547 0.4261
vn 0.2333 0.6078 0.7590
vn -0.8380 0.3708 -0.4003
vn 0.2961 0.6430 -0.7063
vn 0.0000 -1.0000 0.0000
vn 0.0973 0.9781 0.1841
vn 0.0751 0.4843 -0.8717
vn -0.7766 0.6161 -0.1317
vn 0.0418 0.1543 0.9871
vn 0.5167 0.5348 0.6686
vn 0.7169 0.6590 -0.2275
vn -0.9381 0.2277 0.2612
vn -0.0055 0.9885 0.1509
vn -0.3628 0.9220 0.1350
vn 0.8070 0.5894 0.0372
vn -0.0100 0.9725 0.2326
vn 0.0792 0.2921 0.9531
vn -0.2236 0.4033 -0.8873
vn 0.0553 0.8583 0.5102
vn -0.3014 0.5262 -0.7951
vn 0.1667 0.4104 0.8965
usemtl Material.002
s off
f 44//22 40//22 30//22 36//22
f 50//23 46//23 34//23 37//23
f 43//24 42//24 32//24 38//24
f 49//25 48//25 28//25 35//25
f 52//26 41//26 31//26 47//26
f 51//27 40//27 28//27 48//27
f 47//28 49//28 35//28 27//28
f 41//29 43//29 38//29 31//29
f 45//30 50//30 37//30 33//30
f 39//31 44//31 36//31 29//31
f 27//32 35//32 44//32 39//32
f 33//33 37//33 43//33 41//33
f 46//34 30//34 40//34 51//34
f 45//26 33//26 41//26 52//26
f 37//35 34//35 42//35 43//35
f 35//36 28//36 40//36 44//36
f 29//26 45//26 52//26 39//26
f 34//37 46//37 51//37 42//37
f 29//38 36//38 50//38 45//38
f 31//39 38//39 49//39 47//39
f 42//40 51//40 48//40 32//40
f 39//26 52//26 47//26 27//26
f 38//41 32//41 48//41 49//41
f 36//42 30//42 46//42 50//42
o Cube_Cube.001
v -0.084317 0.087166 -1.447250
v 0.419129 0.890132 -2.281395
v -0.084317 0.087166 -3.777949
v 0.612171 0.952931 -3.238615
v 1.915683 0.087166 -1.777949
v 1.412237 1.061121 -2.281395
v 1.915683 0.087166 -3.777949
v 1.412237 0.920032 -3.274503
v 0.088688 0.410222 -1.827355
v 0.088688 0.410222 -3.604944
v 1.742677 0.678080 -3.604944
v 1.565463 0.675065 -1.834786
v -0.084317 0.087166 -2.612599
v 0.327120 0.822196 -2.655345
v 2.191857 0.087166 -2.777949
v 1.412237 0.929215 -2.777949
v 1.791884 0.676573 -2.719865
v 0.088688 0.410222 -2.716149
vn -0.7585 0.6454 -0.0896
vn -0.0751 0.6724 -0.7364
vn 0.7431 0.6665 0.0589
vn -0.1263 0.7274 0.6745
vn 0.0000 -1.0000 0.0000
vn -0.1417 0.9680 -0.2072
vn 0.0536 0.4403 0.8962
vn 0.8228 0.5241 0.2198
vn -0.0259 0.3539 -0.9349
vn -0.8815 0.4721 0.0000
vn 0.8773 0.4555 -0.1511
vn -0.0304 0.9941 0.1039
vn 0.5650 0.8247 -0.0247
vn -0.8363 0.5473 0.0315
usemtl Material.001
s off
f 70//43 66//43 56//43 62//43
f 62//44 56//44 60//44 63//44
f 69//45 68//45 58//45 64//45
f 64//46 58//46 54//46 61//46
f 65//47 67//47 57//47 53//47
f 68//48 66//48 54//48 58//48
f 57//49 64//49 61//49 53//49
f 67//50 69//50 64//50 57//50
f 55//51 62//51 63//51 59//51
f 65//52 70//52 62//52 55//52
f 53//52 61//52 70//52 65//52
f 59//53 63//53 69//53 67//53
f 60//54 56//54 66//54 68//54
f 55//47 59//47 67//47 65//47
f 63//55 60//55 68//55 69//55
f 61//56 54//56 66//56 70//56
